<svg width="35" height="32" viewBox="0 0 35 32" fill="none" xmlns="http://www.w3.org/2000/svg">
<g id="book-open">
<path id="Vector" d="M3.76385 4H12.2639C13.7667 4 15.2081 4.5619 16.2708 5.5621C17.3335 6.56229 17.9305 7.91885 17.9305 9.33333V28C17.9305 26.9391 17.4828 25.9217 16.6857 25.1716C15.8887 24.4214 14.8077 24 13.6805 24H3.76385V4Z" stroke="#333333" stroke-width="2" stroke-linecap="round" stroke-linejoin="round"/>
<path id="Vector_2" d="M32.0972 4H23.5972C22.0943 4 20.653 4.5619 19.5903 5.5621C18.5276 6.56229 17.9305 7.91885 17.9305 9.33333V28C17.9305 26.9391 18.3783 25.9217 19.1753 25.1716C19.9724 24.4214 21.0534 24 22.1805 24H32.0972V4Z" stroke="#333333" stroke-width="2" stroke-linecap="round" stroke-linejoin="round"/>
</g>
</svg>
