<svg width="25" height="25" viewBox="0 0 25 25" fill="none" xmlns="http://www.w3.org/2000/svg">
<g id="lock">
<path id="Vector" d="M19.9806 11.5H5.98059C4.87602 11.5 3.98059 12.3954 3.98059 13.5V20.5C3.98059 21.6046 4.87602 22.5 5.98059 22.5H19.9806C21.0852 22.5 21.9806 21.6046 21.9806 20.5V13.5C21.9806 12.3954 21.0852 11.5 19.9806 11.5Z" stroke="#333333" stroke-width="2" stroke-linecap="round" stroke-linejoin="round"/>
<path id="Vector_2" d="M7.98059 11.5V7.5C7.98059 6.17392 8.50738 4.90215 9.44506 3.96447C10.3827 3.02678 11.6545 2.5 12.9806 2.5C14.3067 2.5 15.5784 3.02678 16.5161 3.96447C17.4538 4.90215 17.9806 6.17392 17.9806 7.5V11.5" stroke="#333333" stroke-width="2" stroke-linecap="round" stroke-linejoin="round"/>
</g>
</svg>
