<svg width="14" height="14" viewBox="0 0 14 14" fill="none" xmlns="http://www.w3.org/2000/svg">
<g id="leaf">
<g id="Group">
<path id="Vector" d="M10.5038 0C10.5038 0 9.35195 1.11753 8.1062 1.56808C-1.11896 4.90485 2.77169 11.4073 2.89861 11.4287C2.89861 11.4287 3.41592 10.5279 4.11471 10.014C8.54898 6.75421 9.45024 3.00198 9.45024 3.00198C9.45024 3.00198 8.45519 7.51711 4.51024 10.3266C3.63894 10.9467 3.04897 12.4738 2.79923 14C2.79923 14 3.41686 13.7505 3.68244 13.6829C3.78601 13.007 4.00253 12.3599 4.36861 11.7818C9.88216 12.4382 11.6879 7.99549 11.9238 6.44635C12.4806 2.7876 10.5038 0 10.5038 0Z" fill="white"/>
</g>
</g>
</svg>
